HIERARCHY
ROOT Hips
{
  OFFSET 53.8318 96.8551 13.2425
  CHANNELS 6 Xposition Yposition Zposition Zrotation Xrotation Yrotation
  JOINT spine
  {
    OFFSET 0 7.96568 0.458067
    CHANNELS 3 Zrotation Xrotation Yrotation
    JOINT spine1
    {
      OFFSET 0 10.2431 0
      CHANNELS 3 Zrotation Xrotation Yrotation
      JOINT spine2
      {
        OFFSET 0 9.81475 0
        CHANNELS 3 Zrotation Xrotation Yrotation
        JOINT Neck
        {
          OFFSET 0 25.1986 1.20138
          CHANNELS 3 Zrotation Xrotation Yrotation
          JOINT Head
          {
            OFFSET 0 7.61315 0
            CHANNELS 3 Zrotation Xrotation Yrotation
            End Site
            {
              OFFSET 0 18.4281 -6.07733
            }
          }
        }
        JOINT RightShoulder
        {
          OFFSET -4.1327 10.5992 -0.575451
          CHANNELS 3 Zrotation Xrotation Yrotation
          JOINT RightArm
          {
            OFFSET 0 13.9018 0
            CHANNELS 3 Zrotation Xrotation Yrotation
            JOINT RightArmRoll
            {
              OFFSET 0 7.01789 0
              CHANNELS 3 Zrotation Xrotation Yrotation
              JOINT RightForeArm
              {
                OFFSET 0 20.4406 0
                CHANNELS 3 Zrotation Xrotation Yrotation
                JOINT RightForeArmRoll
                {
                  OFFSET 0 7.87515 0
                  CHANNELS 3 Zrotation Xrotation Yrotation
                  JOINT RightHand
                  {
                    OFFSET 0 15.8037 0
                    CHANNELS 3 Zrotation Xrotation Yrotation
                    End Site
                    {
                      OFFSET 0 0 0
                    }
                  }
                }
              }
            }
          }
        }
        JOINT LeftShoulder
        {
          OFFSET 4.1327 10.5992 -0.575451
          CHANNELS 3 Zrotation Xrotation Yrotation
          JOINT LeftArm
          {
            OFFSET 0 13.9018 0
            CHANNELS 3 Zrotation Xrotation Yrotation
            JOINT LeftArmRoll
            {
              OFFSET 0 7.01789 0
              CHANNELS 3 Zrotation Xrotation Yrotation
              JOINT LeftForeArm
              {
                OFFSET 0 20.4406 0
                CHANNELS 3 Zrotation Xrotation Yrotation
                JOINT LeftForeArmRoll
                {
                  OFFSET 0 7.87516 0
                  CHANNELS 3 Zrotation Xrotation Yrotation
                  JOINT LeftHand
                  {
                    OFFSET 0 15.8037 0
                    CHANNELS 3 Zrotation Xrotation Yrotation
                    End Site
                    {
                      OFFSET 0 0 0
                    }
                  }
                }
              }
            }
          }
        }
      }
    }
  }
  JOINT RightUpLeg
  {
    OFFSET -7.06048 -1.2947 -1.0861
    CHANNELS 3 Zrotation Xrotation Yrotation
    JOINT RightUpLegRoll
    {
      OFFSET 0 18.5308 0
      CHANNELS 3 Zrotation Xrotation Yrotation
      JOINT RightLeg
      {
        OFFSET 0 -22.9476 0
        CHANNELS 3 Zrotation Xrotation Yrotation
        JOINT RightLegRoll
        {
          OFFSET 0 23.0226 0
          CHANNELS 3 Zrotation Xrotation Yrotation
          JOINT RightFoot
          {
            OFFSET 0 19.1625 0
            CHANNELS 3 Zrotation Xrotation Yrotation
            JOINT RightToeBase
            {
              OFFSET 0 16.0188 0
              CHANNELS 3 Zrotation Xrotation Yrotation
              End Site
              {
                OFFSET 0.00678979 7.75782 -0.894206
              }
            }
          }
        }
      }
    }
  }
  JOINT LeftUpLeg
  {
    OFFSET 7.06048 -1.2947 -1.0861
    CHANNELS 3 Zrotation Xrotation Yrotation
    JOINT LeftUpLegRoll
    {
      OFFSET 0 18.5309 0
      CHANNELS 3 Zrotation Xrotation Yrotation
      JOINT LeftLeg
      {
        OFFSET 0 22.9475 0
        CHANNELS 3 Zrotation Xrotation Yrotation
        JOINT LeftLegRoll
        {
          OFFSET 0 23.2355 0
          CHANNELS 3 Zrotation Xrotation Yrotation
          JOINT LeftFoot
          {
            OFFSET 0 18.9496 0
            CHANNELS 3 Zrotation Xrotation Yrotation
            JOINT LeftToeBase
            {
              OFFSET 0 16.0188 0
              CHANNELS 3 Zrotation Xrotation Yrotation
              End Site
              {
                OFFSET -0.0304289 7.75781 -0.894206
              }
            }
          }
        }
      }
    }
  }
}
MOTION
Frames: 11
Frame Time: 0.00208333
54.0329 97.0147 10.4826 -0.436208 -4.47681 2.55914 0.164774 -1.19743 -0.085926 0.336739 1.60896 -0.188554 0.339197 3.25401 -0.19451 -7.04958 14.8313 2.39361 4.72792 6.08236 0.643219 75.9514 -3.67304 -3.55021 92.7577 19.2061 21.9914 4.77083e-015 -3.18055e-015 -0 -0.827383 4.07951 -0.925959 -2.61059e-006 -2.01352e-006 -3.00667 8.03025 -4.95139 0.697626 -65.05 -1.79938 1.74269 -103.507 17.4548 -6.3968 -1.63003e-014 -1.59028e-014 -6.36111e-015 -7.00932 0.0509009 0.786914 -2.21521e-006 -4.0253e-007 3.00889 -8.02925 -4.95144 -0.697652 178.447 -3.25252 2.53221 180 7.01534e-015 178.869 178.124 5.07074 179.727 -2.92849e-006 -6.75993e-007 0.0972991 -19.6968 69.1649 20.5451 8.13649 25.2327 -3.48774 -175.347 -5.46997 -1.31968 4.54188e-006 -4.6773e-006 -1.22705 -1.66368 -4.87141 0.0442472 -2.08359e-006 -2.56809e-006 -0.0405991 18.4009 67.5598 -19.1596 -8.13649 25.2327 3.48773 
54.0257 97.0166 10.4921 -0.441104 -4.46362 2.56197 0.167111 -1.19948 -0.0864528 0.33943 1.60627 -0.190295 0.34191 3.25131 -0.196283 -7.0571 14.8848 2.39881 4.72401 6.02092 0.645412 75.9305 -3.6766 -3.55029 92.6614 19.0027 22.2061 6.36111e-015 0 3.18055e-015 -0.937553 4.1469 -0.919247 -2.61059e-006 -2.01352e-006 -3.00667 8.03025 -4.95139 0.697626 -65.0448 -1.80192 1.74357 -103.353 17.2764 -6.63805 5.56597e-015 -6.36111e-015 -0 -6.89837 0.0462605 0.788716 -2.21521e-006 -4.0253e-007 3.00889 -8.02925 -4.95144 -0.697652 178.451 -3.21368 2.51928 180 7.01534e-015 178.869 178.139 5.11719 179.725 -2.92849e-006 -6.75993e-007 0.0994464 -19.716 69.1854 20.5646 8.13649 25.2327 -3.48774 -175.342 -5.45915 -1.32286 4.54188e-006 -4.6773e-006 -1.22705 -1.66493 -4.87295 0.0440913 -2.08359e-006 -2.56809e-006 -0.0405991 18.4006 67.5594 -19.1593 -8.13649 25.2327 3.48773 
54.0401 97.009 10.4711 -0.4462 -4.45012 2.5649 0.169529 -1.20168 -0.0869971 0.342169 1.60336 -0.192137 0.344673 3.2484 -0.198159 -7.06407 14.9389 2.40393 4.71957 5.95841 0.647663 75.9111 -3.67986 -3.55033 92.5655 18.7977 22.4187 2.14687e-014 -1.43125e-014 6.36111e-015 -1.04517 4.21594 -0.912728 -2.61059e-006 -2.01352e-006 -3.00667 8.03025 -4.95139 0.697626 -65.039 -1.80397 1.74412 -103.2 17.0964 -6.87932 -7.55382e-015 -1.27222e-014 -4.77083e-015 -6.78798 0.03966 0.790345 -2.21521e-006 -4.0253e-007 3.00889 -8.02925 -4.95144 -0.697652 178.456 -3.17385 2.50578 180 7.01534e-015 178.869 178.154 5.16515 179.722 -2.92849e-006 -6.75993e-007 0.101671 -19.7361 69.2067 20.5849 8.13649 25.2327 -3.48774 -175.336 -5.44799 -1.32615 4.54188e-006 -4.6773e-006 -1.22705 -1.66618 -4.87455 0.0439304 -2.08359e-006 -2.56809e-006 -0.0405991 18.4003 67.559 -19.1589 -8.13649 25.2327 3.48773 
54.0566 97.0107 10.49 -0.451435 -4.43641 2.56788 0.172003 -1.204 -0.0875538 0.344942 1.6003 -0.19405 0.34747 3.24534 -0.200105 -7.07066 14.9935 2.40899 4.71474 5.89517 0.649956 75.8927 -3.68292 -3.55036 92.4702 18.5917 22.6299 1.59028e-015 1.59028e-015 -0 -1.15101 4.28612 -0.906344 -2.61059e-006 -2.01352e-006 -3.00667 8.03025 -4.95139 0.697626 -65.0328 -1.80567 1.74444 -103.049 16.9152 -7.12048 1.11319e-014 -3.18055e-015 -1.59028e-015 -6.67799 0.0316875 0.791853 -2.21521e-006 -4.0253e-007 3.00889 -8.02925 -4.95144 -0.697652 178.461 -3.13333 2.49189 180 7.01534e-015 178.869 178.17 5.2142 179.719 -2.92849e-006 -6.75993e-007 0.103951 -19.7568 69.2285 20.6058 8.13649 25.2327 -3.48774 -175.33 -5.43659 -1.32953 4.54188e-006 -4.6773e-006 -1.22705 -1.66744 -4.87619 0.0437661 -2.08359e-006 -2.56809e-006 -0.0405991 18.3999 67.5586 -19.1585 -8.13649 25.2327 3.48773 
54.0568 96.9889 10.492 -0.456751 -4.42256 2.5709 0.174509 -1.20637 -0.0881175 0.347735 1.59715 -0.196003 0.350287 3.2422 -0.202092 -7.07704 15.0482 2.41403 4.7097 5.8315 0.652272 75.875 -3.68586 -3.55037 92.3759 18.3852 22.8402 7.15625e-015 0 3.18055e-015 -1.25583 4.35696 -0.900038 -2.61059e-006 -2.01352e-006 -3.00667 8.03025 -4.95139 0.697626 -65.0263 -1.80718 1.74464 -102.9 16.7334 -7.36143 7.55382e-015 -9.54166e-015 4.77083e-015 -6.56822 0.022931 0.793291 -2.21521e-006 -4.0253e-007 3.00889 -8.02925 -4.95144 -0.697652 178.466 -3.09241 2.47778 180 7.01534e-015 178.869 178.186 5.26385 179.716 -2.92849e-006 -6.75993e-007 0.106261 -19.7778 69.2507 20.6271 8.13649 25.2327 -3.48774 -175.324 -5.42504 -1.33296 4.54188e-006 -4.6773e-006 -1.22705 -1.66869 -4.87787 0.0435997 -2.08359e-006 -2.56809e-006 -0.0405991 18.3996 67.5582 -19.1582 -8.13649 25.2327 3.48773 
54.0605 96.9914 10.4972 -0.462088 -4.40869 2.57393 0.177023 -1.20876 -0.088683 0.350531 1.59398 -0.197967 0.353109 3.23903 -0.20409 -7.08337 15.1031 2.41906 4.70462 5.76772 0.654594 75.8574 -3.68878 -3.55038 92.283 18.1788 23.05 7.95139e-015 3.18055e-015 -0 -1.36041 4.42796 -0.893752 -2.61059e-006 -2.01352e-006 -3.00667 8.03025 -4.95139 0.697626 -65.0198 -1.80863 1.74479 -102.751 16.5512 -7.60203 6.36111e-015 -3.18055e-015 -4.77083e-015 -6.45851 0.0139786 0.794712 -2.21521e-006 -4.0253e-007 3.00889 -8.02925 -4.95144 -0.697652 178.471 -3.05139 2.46362 180 7.01534e-015 178.869 178.203 5.31365 179.713 -2.92849e-006 -6.75993e-007 0.10858 -19.7989 69.2729 20.6485 8.13649 25.2327 -3.48774 -175.317 -5.41346 -1.3364 4.54188e-006 -4.6773e-006 -1.22705 -1.66995 -4.87955 0.0434329 -2.08359e-006 -2.56809e-006 -0.0405991 18.3993 67.5578 -19.1578 -8.13649 25.2327 3.48773 
54.0603 97.0076 10.5054 -0.467388 -4.39488 2.57695 0.17952 -1.21112 -0.089245 0.353318 1.59086 -0.199911 0.35592 3.2359 -0.206067 -7.08983 15.1578 2.42412 4.69964 5.70416 0.656905 75.8394 -3.69175 -3.55039 92.1918 17.9731 23.2601 -1.19271e-014 6.36111e-015 3.18055e-015 -1.46553 4.49863 -0.887427 -2.61059e-006 -2.01352e-006 -3.00667 8.03025 -4.95139 0.697626 -65.0134 -1.81018 1.74502 -102.605 16.3693 -7.84217 1.59028e-015 -6.36111e-015 -0 -6.34869 0.00541813 0.796168 -2.21521e-006 -4.0253e-007 3.00889 -8.02925 -4.95144 -0.697652 178.476 -3.01057 2.44958 180 7.01534e-015 178.869 178.219 5.36317 179.71 -2.92849e-006 -6.75993e-007 0.110882 -19.8199 69.295 20.6697 8.13649 25.2327 -3.48774 -175.311 -5.40195 -1.33981 4.54188e-006 -4.6773e-006 -1.22706 -1.67121 -4.88121 0.0432671 -2.08359e-006 -2.56809e-006 -0.0405991 18.3989 67.5574 -19.1574 -8.13649 25.2327 3.48773 
54.0605 97.0024 10.5077 -0.472589 -4.38122 2.57992 0.181978 -1.2134 -0.0897982 0.356081 1.58784 -0.201804 0.358707 3.23289 -0.207993 -7.09657 15.2122 2.42922 4.69495 5.64113 0.659187 75.8208 -3.69487 -3.55042 92.1026 17.7686 23.4709 -1.59028e-015 0 -3.18055e-015 -1.57194 4.56848 -0.881005 -2.61059e-006 -2.01352e-006 -3.00667 8.03025 -4.95139 0.697626 -65.0073 -1.81198 1.74541 -102.46 16.188 -8.08173 5.56597e-015 -1.59028e-015 -1.59028e-015 -6.23858 -0.00216231 0.797711 -2.21521e-006 -4.0253e-007 3.00889 -8.02925 -4.95144 -0.697652 178.481 -2.97024 2.43581 180 7.01534e-015 178.869 178.235 5.41192 179.707 -2.92849e-006 -6.75993e-007 0.113146 -19.8406 69.3166 20.6907 8.13649 25.2327 -3.48774 -175.305 -5.39062 -1.34317 4.54188e-006 -4.6773e-006 -1.22706 -1.67247 -4.88285 0.0431038 -2.08359e-006 -2.56809e-006 -0.0405991 18.3986 67.557 -19.1571 -8.13649 25.2327 3.48773 
54.0631 97.0084 10.5276 -0.477634 -4.36782 2.58281 0.184371 -1.21555 -0.0903372 0.358805 1.58499 -0.203615 0.361453 3.23004 -0.209837 -7.10377 15.2661 2.43439 4.69069 5.57895 0.661422 75.801 -3.69822 -3.55048 92.0159 17.5659 23.6829 4.77083e-015 4.77083e-015 6.36111e-015 -1.68042 4.63703 -0.874429 -2.61059e-006 -2.01352e-006 -3.00667 8.03025 -4.95139 0.697626 -65.0017 -1.81418 1.74606 -102.317 16.0079 -8.3206 -3.18055e-015 -9.54166e-015 -4.77083e-015 -6.12802 -0.00817474 0.799392 -2.21521e-006 -4.0253e-007 3.00889 -8.02925 -4.95144 -0.697652 178.486 -2.9307 2.4225 180 7.01534e-015 178.869 178.25 5.45942 179.704 -2.92849e-006 -6.75993e-007 0.115348 -19.8607 69.3376 20.711 8.13649 25.2327 -3.48774 -175.3 -5.37956 -1.34643 4.54188e-006 -4.6773e-006 -1.22706 -1.67372 -4.88442 0.0429444 -2.08359e-006 -2.56809e-006 -0.0405991 18.3983 67.5566 -19.1567 -8.13649 25.2327 3.48773 
54.0481 97.003 10.5239 -0.482462 -4.35476 2.58561 0.186676 -1.21754 -0.090857 0.361475 1.58239 -0.205315 0.364145 3.22743 -0.21157 -7.11159 15.3194 2.43966 4.68704 5.51793 0.663594 75.7795 -3.70189 -3.55056 91.9318 17.3655 23.8967 2.62396e-014 -1.59028e-014 1.27222e-014 -1.79175 4.70377 -0.867639 -2.61059e-006 -2.01352e-006 -3.00667 8.03025 -4.95139 0.697626 -64.9968 -1.81691 1.74707 -102.175 15.8293 -8.55867 -2.8625e-014 -6.36111e-015 -9.54166e-015 -6.01684 -0.0120312 0.801263 -2.21521e-006 -4.0253e-007 3.00889 -8.02925 -4.95144 -0.697652 178.491 -2.89225 2.4098 180 7.01534e-015 178.869 178.264 5.50522 179.702 -2.92849e-006 -6.75993e-007 0.117464 -19.88 69.3577 20.7305 8.13649 25.2327 -3.48774 -175.294 -5.36889 -1.34956 4.54188e-006 -4.6773e-006 -1.22706 -1.67496 -4.88593 0.0427904 -2.08359e-006 -2.56809e-006 -0.0405991 18.398 67.5562 -19.1564 -8.13649 25.2327 3.48773 
54.0483 96.9997 10.5389 -0.487013 -4.34213 2.58829 0.188867 -1.21931 -0.0913521 0.364077 1.58008 -0.206873 0.366768 3.22513 -0.213159 -7.1202 15.3718 2.44505 4.68416 5.45841 0.665685 75.756 -3.70597 -3.55069 91.8508 17.168 24.1128 2.54444e-014 -1.43125e-014 6.36111e-015 -1.90668 4.76822 -0.860579 -2.61059e-006 -2.01352e-006 -3.00667 8.03025 -4.95139 0.697626 -64.9928 -1.82034 1.74854 -102.035 15.6528 -8.79581 3.97569e-015 -9.54166e-015 3.18055e-015 -5.90487 -0.0131436 0.803377 -2.21521e-006 -4.0253e-007 3.00889 -8.02925 -4.95144 -0.697652 178.495 -2.85519 2.39789 180 7.01534e-015 178.869 178.278 5.54887 179.699 -2.92849e-006 -6.75993e-007 0.119472 -19.8982 69.3767 20.749 8.13649 25.2327 -3.48774 -175.289 -5.35871 -1.35252 4.54188e-006 -4.6773e-006 -1.22706 -1.6762 -4.88734 0.0426434 -2.08359e-006 -2.56809e-006 -0.0405991 18.3977 67.5558 -19.156 -8.13649 25.2327 3.48773 
